{"title":"Brahmi Gadi Katha(2011) Telugu 1CD SCAMRip XviD MP3-=MTR=-","uid":6525258,"size":724164983,"categoryP":"video","categoryS":"movies","magnet":"?xt=urn:btih:29af5e48e3a9556893439f4f8895f61be65a9429&amp;dn=Brahmi+Gadi+Katha%282011%29+Telugu+1CD+SCAMRip+XviD+MP3-%3DMTR%3D-&amp;tr=udp%3A%2F%2Ftracker.openbittorrent.com%3A80&amp;tr=udp%3A%2F%2Fopen.demonii.com%3A1337&amp;tr=udp%3A%2F%2Ftracker.coppersurfer.tk%3A6969&amp;tr=udp%3A%2F%2Fexodus.desync.com%3A6969","seeders":0,"leechers":1,"uploader":"HDvideos","files":-1,"time":1310137330,"description":"Brahmi Gadi Katha(2011) Telugu 1CD SCAMRip XviD MP3-=MTR=-\n\nCheck out MY latest Uploads:\n &lt;a href=&quot;\nhttp://thepiratebay.se/user/HDvideos/0/7&quot; rel=&quot;nofollow&quot; target=&quot;_NEW&quot;&gt;\nhttp://thepiratebay.se/user/HDvideos/0/7&lt;/a&gt;\n\nStay updated with us....\n\nSeed after downloading....\n\nEnjoY with HDvideos..\n\nTeam Mastitorrents\n\nSay thanks if u like my posts\n\nGive ur valuable feedbacks\n\nQuality Uploads from HDvideos\n\n-=MTR=-\n\nGeneral\nComplete name                    : Brahmi Gadi Katha (2011) - 1Cd - SCamRip - XviD - MP3\nFormat                           : AVI\nFormat/Info                      : Audio Video Interleave\nFormat profile                   : OpenDML\nFormat settings                  : rec\nFile size                        : 691 MiB\nDuration                         : 2h 5mn\nOverall bit rate                 : 771 Kbps\nWriting application              : AVI-Mux GUI 1.17.8.3, Feb 16 201019:42:50\n\nVideo\nID                               : 0\nFormat                           : MPEG-4 Visual\nFormat profile                   : Advanced Simple@L5\nFormat settings, BVOP            : 2\nFormat settings, QPel            : No\nFormat settings, GMC             : No warppoints\nFormat settings, Matrix          : Default (H.263)\nCodec ID                         : XVID\nCodec ID/Hint                    : XviD\nDuration                         : 2h 5mn\nBit rate                         : 719 Kbps\nWidth                            : 608 pixels\nHeight                           : 256 pixels\nDisplay aspect ratio             : 2.35:1\nFrame rate                       : 29.970 fps\nColor space                      : YUV\nChroma subsampling               : 4:2:0\nBit depth                        : 8 bits\nScan type                        : Progressive\nCompression mode                 : Lossy\nBits/(Pixel*Frame)               : 0.154\nStream size                      : 644 MiB (93%)\nWriting library                  : XviD 1.2.1 (UTC 2008-12-04)\n\nAudio\nID                               : 1\nFormat                           : MPEG Audio\nFormat version                   : Version 1\nFormat profile                   : Layer 3\nMode                             : Joint stereo\nMode extension                   : MS Stereo\nCodec ID                         : 55\nCodec ID/Hint                    : MP3\nDuration                         : 2h 5mn\nBit rate mode                    : Constant\nBit rate                         : 48.0 Kbps\nChannel(s)                       : 2 channels\nSampling rate                    : 44.1 KHz\nCompression mode                 : Lossy\nStream size                      : 43.0 MiB (6%)\nAlignment                        : Aligned on interleaves\nInterleave, duration             : 1073 ms (32.14 video frames)\nInterleave, preload duration     : 209 ms\nTitle                            : bramhi gadi katha (2011)\n\n","torrent":{"xt":"urn:btih:29af5e48e3a9556893439f4f8895f61be65a9429","amp;dn":"Brahmi+Gadi+Katha%282011%29+Telugu+1CD+SCAMRip+XviD+MP3-%3DMTR%3D-","amp;tr":["udp%3A%2F%2Ftracker.openbittorrent.com%3A80","udp%3A%2F%2Fopen.demonii.com%3A1337","udp%3A%2F%2Ftracker.coppersurfer.tk%3A6969","udp%3A%2F%2Fexodus.desync.com%3A6969"],"infoHash":"29af5e48e3a9556893439f4f8895f61be65a9429","infoHashBuffer":{"type":"Buffer","data":[41,175,94,72,227,169,85,104,147,67,159,79,136,149,246,27,230,90,148,41]},"announce":[],"urlList":[]}}